/* XPM */
static char *result[] = {
/* columns rows colors chars-per-pixel */
"40 40 174 2 ",
"   c #020203",
".  c #0B0907",
"X  c #040609",
"o  c #05090D",
"O  c #0C0C0B",
"+  c #110E0C",
"@  c #14110F",
"#  c #050D14",
"$  c #0B0F13",
"%  c #030F19",
"&  c #081016",
"*  c #05111C",
"=  c #09131C",
"-  c #141414",
";  c #1B1613",
":  c #1D1917",
">  c #161718",
",  c #171818",
"<  c #1C1B1C",
"1  c #251E19",
"2  c #24201D",
"3  c #2C241C",
"4  c #312A1F",
"5  c #051523",
"6  c #0D1720",
"7  c #0C1B26",
"8  c #06192A",
"9  c #0B1D2C",
"0  c #1F1F21",
"q  c #071D31",
"w  c #081F34",
"e  c #0E202E",
"r  c #142027",
"t  c #0F2333",
"y  c #0A243B",
"u  c #112635",
"i  c #112B3F",
"p  c #2A2623",
"a  c #272629",
"s  c #292929",
"d  c #2A2C2C",
"f  c #342C23",
"g  c #382E23",
"h  c #312E2C",
"j  c #392E29",
"k  c #3C3126",
"l  c #3B352A",
"z  c #2E2D31",
"x  c #2D3131",
"c  c #3A3735",
"v  c #383837",
"b  c #3A3C3E",
"n  c #41362A",
"m  c #45392B",
"M  c #493B2D",
"N  c #423A36",
"B  c #4B3F31",
"V  c #443D3A",
"C  c #4A4238",
"Z  c #574837",
"A  c #614F3D",
"S  c #62513E",
"D  c #0B2A46",
"F  c #132E42",
"G  c #143044",
"H  c #12324C",
"J  c #0D3354",
"K  c #143652",
"L  c #163854",
"P  c #153A56",
"I  c #143B5B",
"U  c #193E5A",
"Y  c #2A3D49",
"T  c #3D3C40",
"R  c #403F44",
"E  c #1A415E",
"W  c #3C514E",
"Q  c #3B5159",
"!  c #194364",
"~  c #19476A",
"^  c #1C4D74",
"/  c #1D4F78",
"(  c #1E5076",
")  c #1E517A",
"_  c #20557E",
"`  c #3A637C",
"'  c #434247",
"]  c #4B4643",
"[  c #454B4A",
"{  c #494E4E",
"}  c #5E584F",
"|  c #4E4D52",
" . c #504F55",
".. c #4A5050",
"X. c #565655",
"o. c #6B5844",
"O. c #725D47",
"+. c #75624B",
"@. c #7A664E",
"#. c #707145",
"$. c #73755C",
"%. c #5E5D65",
"&. c #605E66",
"*. c #626067",
"=. c #66646B",
"-. c #68676D",
";. c #69686E",
":. c #6C6B73",
">. c #716F77",
",. c #74727B",
"<. c #78767F",
"1. c #846A51",
"2. c #8B745C",
"3. c #8F785C",
"4. c #96795D",
"5. c #947A5D",
"6. c #9C7F61",
"7. c #9D8162",
"8. c #94836B",
"9. c #84936F",
"0. c #9D9569",
"q. c #9F8C72",
"w. c #A38767",
"e. c #AD8E6C",
"r. c #B18F6E",
"t. c #B0916E",
"y. c #A38B72",
"u. c #AF9176",
"i. c #B29374",
"p. c #BB9776",
"a. c #BB9975",
"s. c #C29A76",
"d. c #C7A37D",
"f. c #1F5580",
"g. c #215782",
"h. c #235A87",
"j. c #245D89",
"k. c #2A6289",
"l. c #2B6793",
"z. c #2D6B9A",
"x. c #2F71A0",
"c. c #3173A2",
"v. c #357AAA",
"b. c #4B758A",
"n. c #7C7A84",
"m. c #807E87",
"M. c #807E88",
"N. c #48809B",
"B. c #678C8A",
"V. c #7E948B",
"C. c #77A19B",
"Z. c #84828C",
"A. c #B09781",
"S. c #BAB98D",
"D. c #C8A783",
"F. c #D4AB83",
"G. c #DDB389",
"H. c #E4B58A",
"J. c #E5BA8E",
"K. c #E9BB8E",
"L. c #E5BB92",
"P. c #EDBE91",
"I. c #DDCF8F",
"U. c #E9D58D",
"Y. c #EDC193",
"T. c #F3C495",
"R. c #F2C79A",
"E. c #F4C89B",
"W. c #FDCD9C",
"Q. c #DFE089",
"!. c #E9C6A6",
"~. c #F0CEAE",
"^. c #FBD3AD",
"/. c #FBD4B1",
/* pixels */
"Z.Z.Z.Z.Z.Z.Z.Z.Z.Z.Z.Z.Z.Z.M.,.=.- % , ;.:.<.Z.Z.Z.Z.Z.,.>.M.M.Z.Z.Z.Z.Z.Z.Z.Z.",
"Z.Z.Z.Z.-.-.-.:.Z.Z.Z.Z.>.-.=.< 6 u k.7 4 f C =.=.=.=.=.-   &.Z.Z.Z.Z.Z.Z.Z.Z.Z.",
"Z.Z.Z.Z.X % # , &.&.&.&.a = 7 9 k.c.c.b.U.U.0.9 9 9 t u u u X Z.Z.Z.Z.Z.Z.Z.Z.Z.",
"Z.Z.Z.Z.d y D 9 e 9 t 9 9 ~ / ^ ( ( ( ` S.I.V.j.h.h.z.x.x.v.o Z.Z.Z.Z.Z.Z.Z.Z.Z.",
"Z.Z.Z.Z.n.o J ^ h.h.h.h.h.h.H t w w w y Q $.U U U I U _ h.v.o Z.Z.Z.Z.Z.Z.Z.Z.Z.",
"Z.Z.Z.Z.m.X w I h.h.^ L P K *                         D L z.. Z.Z.Z.Z.Z.Z.Z.Z.Z.",
"Z.Z.Z.Z.M.v # J ! H 9       @ ; ; ; ; ; , ; ; ; ; ; : .   F   Z.Z.Z.Z.Z.Z.Z.Z.Z.",
"Z.Z.Z.M.M.>.X 8 *       @ : p j N N N N N N N N N l j 1       Z.Z.Z.Z.Z.Z.Z.Z.Z.",
"Z.Z.Z.Z.M.m.T $ d s s > O ; ; f c ' ] ] ] ] ] ] ] V V V +     Z.Z.Z.Z.Z.Z.Z.Z.Z.",
"Z.Z.Z.Z.M.n.d - { { | T x x @ @ : C ] ] ] ] ] ] ] ] ] s . a   Z.Z.Z.Z.Z.Z.Z.Z.Z.",
"Z.Z.Z.Z.Z.n.O v { ..........2.7.3 : : 3 ] c : < 1 0 < o d [ X Z.Z.Z.Z.Z.Z.Z.Z.Z.",
"Z.Z.Z.Z.M.,.o a ............a.K.a.t.5.; < ; M t.u.A.i.r.d.X.. Z.Z.Z.Z.Z.Z.Z.Z.Z.",
"Z.Z.Z.Z.Z.M.| - { { ....[ 8.d.T.W.W.T.a.a.a.F.W.^.^././.^.D.+ Z.Z.Z.Z.Z.Z.Z.Z.Z.",
"Z.Z.Z.Z.Z.Z.:.X - - , , > 7.Y.T.T.T.T.T.T.T.W.W.T.R.E.E.~.~.@ Z.Z.Z.Z.Z.Z.Z.Z.Z.",
"Z.Z.Z.Z.Z.M.=.X O > b b r k n k k 4 k g 4 +.Y.Y.4.4 4 g h j O Z.Z.Z.Z.Z.Z.Z.Z.Z.",
"Z.Z.Z.Z.Z.n.0 n 5.- d ..8.d.m , .         ; M n 1           =.Z.Z.Z.Z.Z.Z.Z.Z.Z.",
"Z.Z.Z.Z.Z.,.1 s.F.@.v | y.P.B 0 o         m F.+.@ O         ;.Z.Z.Z.Z.Z.Z.Z.Z.Z.",
"Z.Z.Z.Z.Z.,.1 p.m o.q.X.y.P.o.2 1 o X   . o.W.3.> >     X   > Z.Z.Z.Z.Z.Z.Z.Z.Z.",
"Z.Z.Z.Z.Z.<.1 p.5.A R.y.i.P.H.Z 2 < : > k J.W.w.3 < < < < 3   Z.Z.Z.Z.Z.Z.Z.Z.Z.",
"Z.Z.Z.Z.M.<.0 M 7.@.W.P.K.P.T.G.Z k k k o.W.W.T.2.k k l k 6.. Z.Z.Z.Z.Z.Z.Z.Z.Z.",
"Z.Z.Z.Z.Z.M.-.1 M i.F.T.P.H.H.T.Y.J.K.K.K.W.W.W.Y.J.H.!.L.f 0 Z.Z.Z.Z.Z.Z.Z.Z.Z.",
"Z.Z.Z.Z.Z.Z.M.=.d p A p.F.H.P.W.W.W.T.d.W.W.W.W.W.W.^./.d.; ,.Z.Z.Z.Z.Z.Z.Z.Z.Z.",
"Z.Z.Z.Z.Z.Z.Z.M.n.%.h 1 O.F.H.P.E.W.d.n w.t.e.e.F.W.^.d.3 a n.Z.Z.Z.Z.Z.Z.Z.Z.Z.",
"Z.Z.Z.Z.Z.Z.Z.Z.Z.M.n. .: O.6.F.H.W.K.S S S S S i.W.d.g a ,.Z.Z.Z.Z.Z.Z.Z.Z.Z.Z.",
"Z.Z.Z.Z.Z.Z.Z.Z.Z.Z.Z.M. ., . @.4.H.T.K.Y.T.E.d.7.7.k a >.Z.Z.Z.Z.Z.Z.Z.Z.Z.Z.Z.",
"Z.Z.Z.Z.Z.Z.Z.Z.Z.Z.Z.Z.&.< % o + O.1.1.1.3.7.Z & # a :.Z.Z.Z.Z.Z.Z.Z.Z.Z.Z.Z.Z.",
"Z.Z.Z.Z.Z.Z.Z.Z.Z.Z.Z.&.0 % K * = u X ; +.Z * e 8 5 z ,.Z.Z.Z.Z.Z.Z.Z.Z.Z.Z.Z.Z.",
"Z.Z.Z.Z.Z.Z.Z.Z.Z.Z.Z.T % K f.8 D _ H Y #.} E K % G = &.Z.Z.Z.Z.Z.Z.Z.Z.Z.Z.Z.Z.",
"Z.Z.Z.Z.Z.Z.Z.Z.Z.Z.Z.T 9 ^ g.7 D _ h.( e D b.9.C E u %.Z.Z.Z.Z.Z.Z.Z.Z.Z.Z.Z.Z.",
"Z.Z.Z.Z.Z.Z.Z.Z.Z.Z.Z.T % u y % D ^ K _ ^ ( B.Q.#.7 & %.Z.Z.Z.Z.Z.Z.Z.Z.Z.Z.Z.Z.",
"Z.Z.Z.Z.Z.Z.Z.Z.Z.Z.Z.T S 6.f 8 I u = _ k.z.N.C.W Z f %.Z.Z.Z.Z.Z.Z.Z.Z.Z.Z.Z.Z.",
"Z.Z.Z.Z.Z.Z.Z.Z.Z.Z.Z.T 4.Y.B % 9 X X q i G i G 6 3.Z %.Z.Z.Z.Z.Z.Z.Z.Z.Z.Z.Z.Z.",
"Z.Z.Z.Z.Z.Z.Z.Z.Z.Z.Z.R j C ; 9 P % & I U ! E ^ F f 1 =.Z.Z.Z.Z.Z.Z.Z.Z.Z.Z.Z.Z.",
"Z.Z.Z.Z.Z.Z.Z.Z.Z.Z.Z.>.&.s   y ) ~ ! I J I ~ z.U v %.n.Z.Z.Z.Z.Z.Z.Z.Z.Z.Z.Z.Z.",
"Z.Z.Z.Z.Z.Z.Z.Z.Z.Z.Z.Z.M.=.< y / g.^ * = 5 I l.L ' n.M.Z.Z.Z.Z.Z.Z.Z.Z.Z.Z.Z.Z.",
"Z.Z.Z.Z.Z.Z.Z.Z.Z.Z.Z.m.,.;.0 # = = = - b X = 6 $ b :.>.n.Z.Z.Z.Z.Z.Z.Z.Z.Z.Z.Z.",
"Z.Z.Z.Z.Z.Z.Z.Z.Z.Z.n.:.-.=.0 h c c h < [ > c c 1 T ;.;.:.m.Z.Z.Z.Z.Z.Z.Z.Z.Z.Z.",
"Z.Z.Z.Z.Z.Z.Z.Z.Z.Z.<.-.-.-.a @ - - @ 1 | + - - $ ' =.-.,.m.Z.Z.Z.Z.Z.Z.Z.Z.Z.Z.",
"Z.Z.Z.Z.Z.Z.Z.Z.Z.Z.M.M.,.;.=.&.&.*.&.*.=.&.*.*.*.=.;.,.Z.Z.Z.Z.Z.Z.Z.Z.Z.Z.Z.Z.",
"Z.Z.Z.Z.Z.Z.Z.Z.Z.Z.Z.Z.M.M.M.n.>.;.;.;.-.-.:.m.m.M.m.Z.Z.Z.Z.Z.Z.Z.Z.Z.Z.Z.Z.Z."
};
