/* XPM */
static char *result[] = {
/* columns rows colors chars-per-pixel */
"32 50 41 1 ",
"  c black",
". c #020508",
"X c #03080B",
"o c #03090C",
"O c gray3",
"+ c #090A0A",
"@ c #04131E",
"# c #07141E",
"$ c #1D1E1E",
"% c #041421",
"& c #091723",
"* c #0D1F2C",
"= c #0E202D",
"- c #1F2020",
"; c #272828",
": c #342A26",
"> c #3A2F2A",
", c #403427",
"< c #443E39",
"1 c #47413D",
"2 c #0B2F4F",
"3 c #1E527C",
"4 c #4C4744",
"5 c #4A5050",
"6 c #9F9E5F",
"7 c #BF9A75",
"8 c #B0967B",
"9 c #245D8A",
"0 c #3174A3",
"q c #3377A8",
"w c #367DAF",
"e c #3880B2",
"r c #6D918A",
"t c #E2B288",
"y c #F8C798",
"u c #FFCE9D",
"i c #F2DC90",
"p c #E4E389",
"a c #FDD5B2",
"s c #FCD8B9",
"d c None",
/* pixels */
"ddddddddddddddd    ddddddddddddd",
"ddddddddddddd    e    ddddddd  d",
"    dddddd    eeee9iii          ",
"    dddddd    wwww9iii....oXXXX ",
" 22        99999999iii9999qeeee ",
"d 299999999922222229i999999999e ",
"d 2299999999                99e ",
"d  29999                      9 ",
"dd 222      >>>>>>>>>>>>>>>>    ",
"dd %%%    ::>><<<<<<<<<<<>>>:   ",
"dd        >>>>44444444444>>>>   ",
"ddd 55555    >>14444444444444   ",
"dd  55555555   4444444444444  5 ",
"dd 555555555uu     44        55 ",
"dd  55555555ttuuuu    uussuuuu5 ",
"ddd 5555555ttuuuuuuuuuuuusssssu ",
"ddd 5555555ttuuuuuuuuuuuusssssu ",
"ddd        uuuuuuuuuuuuuuuuuuss ",
"ddd    555           uuu        ",
"dd  uu  55uu ;                 d",
"dd tuuu 55tu ;       uu ;      d",
"dd t   u55tu ;;O     uu ;       ",
"dd t77 u85tu7+;-$$$ 7uu ;$$$$$  ",
"dd tuu uu5tuu ;;;;; uuu ;;;;;;  ",
"dd  uu uuutuuu      uuuu      u ",
"ddd   uututttuuuuuuuuuuuuuuusu  ",
"dddd    uuttuuuuuuuuuuuuuuassu d",
"ddddddd   uttuuuuu uuuuuuuasu  d",
"ddddddddd  utttyuu      uuuu  dd",
"ddddddddd  utttyuu      uuuu  dd",
"dddddddddd   utyuuuuuuuuuu,  ddd",
"ddddddddddd    tttttuuu     dddd",
"dddddddddd  2           2 dddddd",
"ddddddddd  29 239  uu 9 2   dddd",
"ddddddddd 299 23999  99  e= dddd",
"ddddddddd 299 23999@@9r6 0* dddd",
"ddddddddd 299 23999229pp 9& dddd",
"ddddddddd     239 9999pp    dddd",
"ddddddddd uu 29#  99eeee u, dddd",
"ddddddddd uu             u, dddd",
"ddddddddd    29#  99999e    dddd",
"ddddddddddd  2999922229e ddddddd",
"ddddddddddd  2999922229e ddddddd",
"dddddddddddd 29999   29e ddddddd",
"dddddddddddd       d     ddddddd",
"dddddddddddd 44444 d 444 ddddddd",
"dddddddddddd       d     ddddddd",
"dddddddddddddddddddddddddddddddd",
"dddddddddddddddddddddddddddddddd",
"dddddddddddddddddddddddddddddddd"
};
