/* XPM */
static char *result[] = {
/* columns rows colors chars-per-pixel */
"40 40 178 2 ",
"   c #303033",
".  c #323134",
"X  c #353336",
"o  c #353337",
"O  c #373336",
"+  c #343436",
"@  c #353437",
"#  c #363437",
"$  c #383437",
"%  c #363539",
"&  c #373539",
"*  c #363639",
"=  c #373639",
"-  c #36363A",
";  c #37373A",
":  c #393538",
">  c #3A3639",
",  c #38373A",
"<  c #39383B",
"1  c #39383C",
"2  c #39393D",
"3  c #3A393D",
"4  c #39393F",
"5  c #393A3F",
"6  c #3A3A3E",
"7  c #3B3B3E",
"8  c #3B3B3F",
"9  c #3F3A3E",
"0  c #3B3B40",
"q  c #3A3B41",
"w  c #3B3B41",
"e  c #3D3D43",
"r  c #3D3E43",
"t  c #3E3E42",
"y  c #3F3F42",
"u  c #3F3F43",
"i  c #3D3E44",
"p  c #3E3E44",
"a  c #3F3F44",
"s  c #3F3F45",
"d  c #413D40",
"f  c #413C41",
"g  c #423D40",
"h  c #403D42",
"j  c #413E42",
"k  c #423F43",
"l  c #3F4046",
"z  c #404044",
"x  c #414145",
"c  c #414146",
"v  c #404147",
"b  c #414147",
"n  c #414246",
"m  c #424247",
"M  c #434347",
"N  c #444044",
"B  c #444347",
"V  c #414148",
"C  c #414248",
"Z  c #424248",
"A  c #434348",
"S  c #434349",
"D  c #43434A",
"F  c #444348",
"G  c #444449",
"H  c #454449",
"J  c #474448",
"K  c #464449",
"L  c #44444A",
"P  c #44454A",
"I  c #45454B",
"U  c #47474C",
"Y  c #46464D",
"T  c #47474D",
"R  c #49454A",
"E  c #4A464B",
"W  c #4B474B",
"Q  c #48474D",
"!  c #48484D",
"~  c #49484D",
"^  c #4A494D",
"/  c #48484E",
"(  c #49494E",
")  c #4A4A4F",
"_  c #4D4A4F",
"`  c #4A4B51",
"'  c #4C4A50",
"]  c #4B4C52",
"[  c #4D4C51",
"{  c #4D4D51",
"}  c #4C4C52",
"|  c #4F4D52",
" . c #4D4D54",
".. c #4F4F54",
"X. c #4E4E55",
"o. c #4F4F56",
"O. c #514D52",
"+. c #524E54",
"@. c #535055",
"#. c #505056",
"$. c #505057",
"%. c #535056",
"&. c #555157",
"*. c #505058",
"=. c #515158",
"-. c #525259",
";. c #53525A",
":. c #54535A",
">. c #57545A",
",. c #56555C",
"<. c #58555C",
"1. c #58565D",
"2. c #5B585E",
"3. c #5A595F",
"4. c #5B5A61",
"5. c #5A5A62",
"6. c #5C5B63",
"7. c #5D5C62",
"8. c #5E5E65",
"9. c #615E65",
"0. c #625F65",
"q. c #616066",
"w. c #63636B",
"e. c #656269",
"r. c #65626A",
"t. c #65646A",
"y. c #67666F",
"u. c #68666F",
"i. c #6A6970",
"p. c #6B6A73",
"a. c #6D6970",
"s. c #6C6A71",
"d. c #6D6A72",
"f. c #6C6B73",
"g. c #6F6B72",
"h. c #6E6B73",
"j. c #6F6B73",
"k. c #6C6B74",
"l. c #6D6C75",
"z. c #6F6C74",
"x. c #706E77",
"c. c #716F77",
"v. c #726E77",
"b. c #726F77",
"n. c #706F78",
"m. c #717079",
"M. c #72707A",
"N. c #74727A",
"B. c #74727B",
"V. c #75727B",
"C. c #75737B",
"Z. c #74737C",
"A. c #75747D",
"S. c #77747D",
"D. c #75747E",
"F. c #76757E",
"G. c #77767F",
"H. c #78767F",
"J. c #79767F",
"K. c #787780",
"L. c #7A7780",
"P. c #7A7881",
"I. c #7A7882",
"U. c #7B7982",
"Y. c #7D7B84",
"T. c #7D7B85",
"R. c #7F7D87",
"E. c #807E87",
"W. c #807E88",
"Q. c #817F88",
"!. c #817F89",
"~. c #82808A",
"^. c #83808A",
"/. c #82818A",
"(. c #83818B",
"). c #83828B",
"_. c #84828B",
"`. c #84828C",
/* pixels */
"`.`.`.`.`.`.`.`.l.e w w w w w w w w w w w w w w w w w w p U g L.`.`.`.`.`.`.`.`.",
"`.`.`.`.`.`.`.`.c.: 7 7 & < 7 3 # 7 7 X 7 7 , , 7 7 X 8 7 = d J.`.`.`.`.`.`.`.`.",
"`.`.`.`.`.`.`.`.z.j N.Q._ %.Q.e.j U.Y.k 0.Q.@.E Q.b.h s.Q.R O.`.`.`.`.`.`.`.`.`.",
"`.`.`.`.`.`.`.`.x.z B.`.#...`.u.y T.W.I 7.`.,.H `.Z.c i.`.} ^ `.`.`.`.`.`.`.`.`.",
"`.`.`.`.`.`.`.`.k.a B.`.] ..`.w.t T.R.b 7.`.$.H `.m.a i.`.Y ^ `.`.`.`.`.`.`.`.`.",
"`.`.`.`.`.`.`.`.k.a B.`.] ..`.w.t T.R.b 7.`.$.H `.m.a i.`.Y ^ `.`.`.`.`.`.`.`.`.",
"`.`.`.`.`.`.`.`.k.a B.`.] ..`.w.t T.R.b 7.`.$.H `.m.a i.`.Y ^ `.`.`.`.`.`.`.`.`.",
"`.`.`.`.`.`.`.`.k.a B.`.] ..`.w.t T.R.b 7.`.$.H `.m.a i.`.Y ^ `.`.`.`.`.`.`.`.`.",
"`.`.`.`.`.`.`.`.k.a B.`.] ..`.w.t T.R.b 7.`.$.H `.m.a i.`.Y ^ `.`.`.`.`.`.`.`.`.",
"`.`.`.`.`.`.`.`.k.a B.`.] ..`.w.t T.R.b 7.`.$.H `.m.a i.`.Y ^ `.`.`.`.`.`.`.`.`.",
"`.`.`.`.`.`.`.`.k.a B.`.] ..`.w.t T.R.b 7.`.$.H `.m.a i.`.Y ^ `.`.`.`.`.`.`.`.`.",
"`.`.`.`.`.`.`.`.k.a B.`.] ..`.w.t T.R.b 7.`.$.H `.m.a i.`.Y ^ `.`.`.`.`.`.`.`.`.",
"`.`.`.`.`.`.`.`.k.a B.`.] ..`.w.t T.R.b 7.`.$.H `.m.a i.`.Y ^ `.`.`.`.`.`.`.`.`.",
"`.`.`.`.`.`.`.`.k.a B.`.] ..`.w.t T.R.b 7.`.$.H `.m.a i.`.Y ^ `.`.`.`.`.`.`.`.`.",
"`.`.`.`.`.`.`.`.k.a B.`.] ..`.w.t T.R.b 7.`.$.H `.m.a i.`.Y ^ `.`.`.`.`.`.`.`.`.",
"`.`.`.`.`.`.`.`.k.a B.`.] ..`.w.t T.R.b 7.`.$.H `.m.a i.`.Y ^ `.`.`.`.`.`.`.`.`.",
"`.`.`.`.`.`.`.`.k.a B.`.] ..`.w.t T.R.b 7.`.$.H `.n.4 o.6.i ) `.`.`.`.`.`.`.`.`.",
"`.`.`.`.`.`.`.`.k.a B.`.] ..`.w.t T.R.b 7.`.$.H `.*.S U U U G !.`.`.`.`.`.`.`.`.",
"`.`.`.`.`.`.`.`.Z.Q U.(.;.9.(.k.' E.W./ z.(.5.1.(. .! ! ! ! t W.`.`.`.`.`.`.`.`.",
"`.`.`.`.`.`.`.`.M.l p p r i p p r p p r p p p i p q ! U U U 3 g.`.`.`.`.`.`.`.`.",
"`.`.`.`.`.`.`.`.H.$ 6 6 @ % 6 1 . 6 6 . 2 6 * o 6 5 ! U m u ; v.`.`.`.`.`.`.`.`.",
"`.`.`.`.`.`.`.`.V.9 S.(.+.&._.d.f Y.^.N e.).2.W (. .! U ! t t W.`.`.`.`.`.`.`.`.",
"`.`.`.`.`.`.`.`.B.x c._.:.{ `.f.t P./.! 3.`.4.B (.8.A A A x + !.`.`.`.`.`.`.`.`.",
"`.`.`.`.`.`.`.`.n.a c._.X.{ `.y.t P.~.S 3.`.,.B (.F.- [ q.0 F `.`.`.`.`.`.`.`.`.",
"`.`.`.`.`.`.`.`.n.a c._.X.{ `.y.t P.~.S 3.`.,.B (.G.n t.`.` ~ `.`.`.`.`.`.`.`.`.",
"`.`.`.`.`.`.`.`.n.a c._.X.{ `.y.t P.~.S 3.`.,.B (.G.n t.`.` ~ `.`.`.`.`.`.`.`.`.",
"`.`.`.`.`.`.`.`.n.a c._.X.{ `.y.t P.~.S 3.`.,.B (.G.n t.`.` ~ `.`.`.`.`.`.`.`.`.",
"`.`.`.`.`.`.`.`.n.a c._.X.{ `.y.t P.~.S 3.`.,.B (.G.n t.`.` ~ `.`.`.`.`.`.`.`.`.",
"`.`.`.`.`.`.`.`.n.a c._.X.{ `.y.t P.~.S 3.`.,.B (.G.n t.`.` ~ `.`.`.`.`.`.`.`.`.",
"`.`.`.`.`.`.`.`.n.a c._.X.{ `.y.t P.~.S 3.`.,.B (.G.n t.`.` ~ `.`.`.`.`.`.`.`.`.",
"`.`.`.`.`.`.`.`.n.a c._.X.{ `.y.t P.~.S 3.`.,.B (.G.n t.`.` ~ `.`.`.`.`.`.`.`.`.",
"`.`.`.`.`.`.`.`.n.a c._.X.{ `.y.t P.~.S 3.`.,.B (.G.n t.`.` ~ `.`.`.`.`.`.`.`.`.",
"`.`.`.`.`.`.`.`.n.a c._.X.{ `.y.t P.~.S 3.`.,.B (.G.n t.`.` ~ `.`.`.`.`.`.`.`.`.",
"`.`.`.`.`.`.`.`.n.a c._.X.{ `.y.t P.~.S 3.`.,.B (.G.n t.`.` ~ `.`.`.`.`.`.`.`.`.",
"`.`.`.`.`.`.`.`.n.a c._.X.{ `.y.t P.~.S 3.`.,.B (.G.n t.`.` ~ `.`.`.`.`.`.`.`.`.",
"`.`.`.`.`.`.`.`.n.a c._.X.{ `.y.t P.~.S 3.`.,.B (.G.n t.`.` ~ `.`.`.`.`.`.`.`.`.",
"`.`.`.`.`.`.`.`.n.a c._.X.{ `.y.t P.~.S 3.`.,.M (.G.n t.`.` ~ `.`.`.`.`.`.`.`.`.",
"`.`.`.`.`.`.`.`.A.F C.!.-.<.!.p.K U.W.T r.!.5.| !.K.P h.!.=.>.`.`.`.`.`.`.`.`.`.",
"`.`.`.`.`.`.`.`.D.V L L v Z L S l L L l D L C b L L s L L ( J a.`.`.`.`.`.`.`.`.",
"`.`.`.`.`.`.`.`.I.>                                         O j.`.`.`.`.`.`.`.`."
};
