/* XPM */
static char *result[] = {
/* columns rows colors chars-per-pixel */
"32 50 9 1 ",
"  c gray9",
". c #251818",
"X c #303138",
"o c #313239",
"O c #3D3D40",
"+ c #403D41",
"@ c #47474C",
"# c #48484D",
"$ c None",
/* pixels */
"$XXXXXXXXXXXXXXXXXXXXXXXXXXX##.$",
"###############################.",
"$.$$$$.$$$.$$$$.$$$$.$$$$.$$$.$$",
"##$$$##$$$# $$$# $$##$$$##$$$# $",
"@#$$$@#$$$# $$$# $$@#$$$@#$$$# $",
"X#$$$X#$$$# $$$# $$X#$$$X#$$$# $",
"X#$$$X#$$$# $$$# $$X#$$$X#$$$# $",
"X#$$$X#$$$# $$$# $$X#$$$X#$$$# $",
"X#$$$X#$$$# $$$# $$X#$$$X#$$$# $",
"X#$$$X#$$$# $$$# $$X#$$$X#$$$# $",
"X#$$$X#$$$# $$$# $$X#$$$X#$$$# $",
"X#$$$X#$$$# $$$# $$X#$$$X#$$$# $",
"X#$$$X#$$$# $$$# $$X#$$$X#$$$# $",
"X#$$$X#$$$# $$$# $$X#$$$X#$$$# $",
"X#$$$X#$$$# $$$# $$X#$$$X#$$$# $",
"X#$$$X#$$$# $$$# $$X#$$$X#$$$# $",
"X#$$$X#$$$# $$$# $$X#$$$X#$$$# $",
"X#$$$X#$$$# $$$# $$X#$$$X#$$$# $",
"X#$$$X#$$$# $$$# $$X#$$$X#$$$# $",
"X#$$$X#$$$# $$$# $$X#$$$X#$$$# $",
"X#$$$X#$$$# $$$# $$X#$$$X#$$$# $",
"X#$$$X#$$$# $$$# $$X#$$$X######$",
"X#$$$X#$$$# $$$# $$X#$$X#######$",
"$#$$$$#$$$X$$$$o$$$$#$$X#######$",
"X######################X#######.",
"#+OOOOOOOOOOOOOOOOOOOOOX#######.",
"$.$$$$.$$$.$$$$.$$$$.$$X#######$",
"##$$$##$$$# $$$# $$##$$X#######$",
"X#$$$X#$$$# $$$# $$X#$$$###### $",
"X#$$$X#$$$# $$$# $$X#$$$X#$$$# $",
"X#$$$X#$$$# $$$# $$X#$$$X#$$$# $",
"X#$$$X#$$$# $$$# $$X#$$$X#$$$# $",
"X#$$$X#$$$# $$$# $$X#$$$X#$$$# $",
"X#$$$X#$$$# $$$# $$X#$$$X#$$$# $",
"X#$$$X#$$$# $$$# $$X#$$$X#$$$# $",
"X#$$$X#$$$# $$$# $$X#$$$X#$$$# $",
"X#$$$X#$$$# $$$# $$X#$$$X#$$$# $",
"X#$$$X#$$$# $$$# $$X#$$$X#$$$# $",
"X#$$$X#$$$# $$$# $$X#$$$X#$$$# $",
"X#$$$X#$$$# $$$# $$X#$$$X#$$$# $",
"X#$$$X#$$$# $$$# $$X#$$$X#$$$# $",
"X#$$$X#$$$# $$$# $$X#$$$X#$$$# $",
"X#$$$X#$$$# $$$# $$X#$$$X#$$$# $",
"X#$$$X#$$$# $$$# $$X#$$$X#$$$# $",
"X#$$$X#$$$# $$$# $$X#$$$X#$$$# $",
"X#$$$X#$$$# $$$# $$X#$$$X#$$$# $",
"X#$$$X#$$$# $$$# $$X#$$$X#$$$# $",
"$#$$$$#$$$X$$$$X$$$$#$$$$#$$$X$$",
"X##############################.",
"$.                             $"
};
