/* XPM */
static char *result[] = {
/* columns rows colors chars-per-pixel */
"32 50 23 1 ",
"  c #453D3D",
". c #463D3D",
"X c #473E3E",
"o c #473F3F",
"O c #483F3F",
"+ c #484040",
"@ c #494040",
"# c #494141",
"$ c #4A4141",
"% c #4A4242",
"& c #4B4242",
"* c #4B4343",
"= c #4C4343",
"- c #4D4343",
"; c #4D4444",
": c #4E4444",
"> c #4E4545",
", c #4F4545",
"< c #4F4646",
"1 c #504747",
"2 c #514747",
"3 c #514848",
"4 c #534949",
/* pixels */
"================================",
"================================",
"======================@&========",
"======================$&====$>==",
"============================ $==",
"============$===============&*==",
"===========&@===================",
"====$$=================&=3======",
"====&&><=======;=======$;<O=====",
"======&$======;2======;>=<4=====",
"========================.&3=====",
"================================",
"================================",
"=================;==============",
"=================2;=============",
"================================",
"================================",
"===========;1==*================",
"====%=======;==#$===============",
"====+======================<====",
"===========================;====",
"===========================$====",
"================================",
"================================",
"==========================#=====",
"==========================$=====",
"=====$;+=======&&===============",
"====&#$$=======%X=======@&======",
"=====$@<=======,>======& O======",
"====:@<-================&@======",
"=====&;===========@&============",
"=================,>=============",
"==================;=============",
"================================",
"============@$==================",
"============&&==================",
"===;;===================&&======",
"===<>===================X%======",
"===============$$======+&>======",
"===============&&======Xo@======",
"=========-;============&$&======",
"=========:1=====================",
"===$$===========================",
"===>&===========================",
"==#@$=======================,<==",
"==&&======&==========%======;;==",
"==========@&=========@&=========",
"================================",
"================================",
"================================"
};
