/* XPM */
static char *result[] = {
/* columns rows colors chars-per-pixel */
"32 14 20 1 ",
"  c #110F09",
". c #16120A",
"X c #17130A",
"o c #181509",
"O c #18150D",
"+ c #18160D",
"@ c #281E0D",
"# c #2D210E",
"$ c #C6AF18",
"% c #D3BB1A",
"& c #C4872A",
"* c #C58929",
"= c #E8CD1C",
"- c #E9CF27",
"; c #E9CF28",
": c #E9D030",
"> c #F3E598",
", c #F4E599",
"< c #F4E69D",
"1 c None",
/* pixels */
"1111    111111111111111111111111",
"111 <<;=  1111111111111111111111",
"111+,,-=oo1111111111111111111111",
"1  <======  11111111111111111111",
" <<== %====$                 111",
" <<= 1   &=:<===========<<<<<O 1",
" <<= 111 &===================>< ",
" <<= 111 &===================>< ",
" <<= 1  &&================ ==== ",
" ==== %===&&          ==  1 =*& ",
"1  =====&&  11111111  ==  1 &&& ",
"111o****XX1111111111  **  1 &#@1",
"111 &&&&  1111111111  &&  1 &. 1",
"1111    11111111111111  1111 111"
};
