/* XPM */
static char *result[] = {
/* columns rows colors chars-per-pixel */
"40 40 234 2 ",
"   c #0F0D09",
".  c #11100B",
"X  c #13110A",
"o  c #12100B",
"O  c #12110B",
"+  c #141109",
"@  c #17130A",
"#  c #12100C",
"$  c #12110C",
"%  c #13120D",
"&  c #14120C",
"*  c #15140D",
"=  c #19170B",
"-  c #181611",
";  c #191712",
":  c #1C1912",
">  c #1A1814",
",  c #1D1B16",
"<  c #1E1C17",
"1  c #211D0A",
"2  c #211D0E",
"3  c #281E0E",
"4  c #291F0E",
"5  c #211E10",
"6  c #211E14",
"7  c #211F14",
"8  c #2E290E",
"9  c #32250F",
"0  c #222015",
"q  c #232116",
"w  c #23211E",
"e  c #24221E",
"r  c #25231E",
"t  c #382911",
"y  c #272522",
"u  c #272523",
"i  c #2B2825",
"p  c #2A2925",
"a  c #2D2B29",
"s  c #2E2C28",
"d  c #2E2C2A",
"f  c #343231",
"g  c #363433",
"h  c #383636",
"j  c #3C3A3A",
"k  c #3F3D3E",
"l  c #473E0D",
"z  c #473F0D",
"x  c #473F0E",
"c  c #473313",
"v  c #4E3815",
"b  c #523C15",
"n  c #403E3E",
"m  c #4F4610",
"M  c #4D461F",
"N  c #574912",
"B  c #584E10",
"V  c #664B18",
"C  c #6B4B19",
"Z  c #6B4B1A",
"A  c #6C4C1A",
"S  c #655910",
"D  c #675B10",
"F  c #705417",
"G  c #75521B",
"H  c #77531B",
"J  c #746613",
"K  c #756713",
"L  c #746717",
"P  c #786A13",
"I  c #7D6E12",
"U  c #7C6E13",
"Y  c #7E6F13",
"T  c #7A6C14",
"R  c #4D4621",
"E  c #59472E",
"W  c #5F4929",
"Q  c #45413D",
"!  c #524432",
"~  c #544633",
"^  c #664D27",
"/  c #635A25",
"(  c #675D24",
")  c #6F6321",
"_  c #776B21",
"`  c #413F40",
"'  c #424041",
"]  c #444343",
"[  c #474546",
"{  c #474547",
"}  c #4C4641",
"|  c #4F4943",
" . c #494849",
".. c #4A484A",
"X. c #4B494B",
"o. c #4B494C",
"O. c #4B4A4C",
"+. c #4C4A4C",
"@. c #4C4B4D",
"#. c #4D4B4E",
"$. c #4F4D4F",
"%. c #5E5A4B",
"&. c #504E51",
"*. c #514F52",
"=. c #585351",
"-. c #59575C",
";. c #5A585C",
":. c #69634D",
">. c #6C664E",
",. c #726B49",
"<. c #7F7750",
"1. c #7F7751",
"2. c #605E64",
"3. c #626065",
"4. c #636167",
"5. c #66646A",
"6. c #6F6D73",
"7. c #727077",
"8. c #727078",
"9. c #737178",
"0. c #737179",
"q. c #87641C",
"w. c #8D7D1B",
"e. c #8A6122",
"r. c #966C20",
"t. c #AC7725",
"y. c #AC7825",
"u. c #AF7926",
"i. c #817847",
"p. c #827A51",
"a. c #918115",
"s. c #97861A",
"d. c #A39016",
"f. c #A69317",
"g. c #AF9B17",
"h. c #A49218",
"j. c #B49F19",
"k. c #B7A118",
"l. c #BCA319",
"z. c #BEA818",
"x. c #BFA919",
"c. c #B68D21",
"v. c #BF8429",
"b. c #C0AA19",
"n. c #C4AD18",
"m. c #CBB319",
"M. c #CCB41A",
"N. c #D4BB19",
"B. c #D4BB1A",
"V. c #D5BC1A",
"C. c #D9BF1B",
"Z. c #DDB91F",
"A. c #C68E27",
"S. c #C08429",
"D. c #C38629",
"F. c #C1852A",
"G. c #C2852A",
"H. c #C4862A",
"J. c #C5872A",
"K. c #C58A29",
"L. c #C78E28",
"P. c #C88E28",
"I. c #C49224",
"U. c #CF9D25",
"Y. c #D4A822",
"T. c #D5A822",
"R. c #D5A823",
"E. c #DAB420",
"W. c #DBB521",
"Q. c #DEB921",
"!. c #DBC21A",
"~. c #DDC31B",
"^. c #DDC41B",
"/. c #DEC41B",
"(. c #DFC51B",
"). c #E1C41C",
"_. c #E2C41D",
"`. c #E2C81B",
"'. c #E4C91B",
"]. c #E5CA1B",
"[. c #E6CC1B",
"{. c #E7CC1B",
"}. c #E6C91C",
"|. c #E5CA1C",
" X c #E6CB1C",
".X c #E7CC1C",
"XX c #E7CC1D",
"oX c #E7CC1F",
"OX c #E7CD1F",
"+X c #E8CD1B",
"@X c #E8CC1C",
"#X c #E8CD1C",
"$X c #E9CE1F",
"%X c #E7CD21",
"&X c #E7CD25",
"*X c #E8CD21",
"=X c #E8CF2F",
"-X c #E9D038",
";X c #E9D13D",
":X c #EAD23C",
">X c #EAD23D",
",X c #968D5F",
"<X c #A19762",
"1X c #E6D14D",
"2X c #E9D44E",
"3X c #EAD44E",
"4X c #EBD44E",
"5X c #EAD54E",
"6X c #EBD54E",
"7X c #E8D351",
"8X c #E9D55E",
"9X c #E9D76F",
"0X c #EFDD7C",
"qX c #7A7881",
"wX c #7B7982",
"eX c #7E7C85",
"rX c #7F7D86",
"tX c #7F7D87",
"yX c #807E88",
"uX c #817E88",
"iX c #817F88",
"pX c #817F89",
"aX c #828089",
"sX c #82808A",
"dX c #83818B",
"fX c #84828B",
"gX c #84828C",
"hX c #E4D793",
"jX c #EDDF99",
"kX c #EEE099",
"lX c #EEE19A",
"zX c #F3E598",
"xX c #F2E59B",
"cX c #F3E59C",
/* pixels */
"gXgXgXgXgXgXgXgXgXgXgXgXgXgXgXgXgXgXgXgXgXgXgXgXgXgXgXgXgXgXgXgXgXgXgXgXgXgXgXgX",
"gXgXgXgXgXgXgXgXgXgXgXgXgXgXgXgXgXgXgXgXgXgXgXgXgXgXgXgXgXgXgXgXgXgXgXgXgXgXgXgX",
"gXgXgXgXgXgXgXgXgXgXgXgXgXgXgXgXgXgXgXgXgXgXgXgXgXgXgXgXgXgXgXgXgXgXgXgXgXgXgXgX",
"gXgXgXgXgXgXgXgXgXgXgXgXgXgXgXgXgXgXgXgXgXgXgXgXgXgXgXgXgXgXgXgXgXgXgXgXgXgXgXgX",
"gXgXgXgXgXgXgXgXgXgXgXgXgXgXgXgXgXgXgXgXgXgXgXgXgXgXgXgXgXgXgXgXgXgXgXgXgXgXgXgX",
"gXgXgXgXgXgXgXgXgXgXgXgXgXgXgXgXgXgXgXgXgXgXgXgXgXgXgXgXgXgXgXgXgXgXgXgXgXgXgXgX",
"gXgXgXgXgXgXgXgXgXgXgXgXgXgXgXgXgXgXgXgXgXgXgXgXgXgXgXgXgXgXgXgXgXgXgXgXgXgXgXgX",
"gXgXgXgXgXgXgXgXgXgXgXgXgXgXgXgXgXgXgXgXgXgXgXgXgXgXgXgXgXgXgXgXgXgXgXgXgXgXgXgX",
"gXgXgXgXgXgXgXgXgXgXgXgXgXgXgXgXgXgXgXgXgXgXgXgXgXgXgXgXgXgXgXgXgXgXgXgXgXgXgXgX",
"gXgXgXgXgXgXgXgXgXgXgXgXgXgXgXgXgXgXgXgXgXgXgXgXgXgXgXgXgXgXgXgXgXgXgXgXgXgXgXgX",
"gXgXgXgXgXgXgXgXgXgXgXgXgXgXgXgXgXgXgXgXgXgXgXgXgXgXgXgXgXgXgXgXgXgXgXgXgXgXgXgX",
"gXgXgXgXgXgXgXgXgXgXgXgXgXgXgXgXgXgXgXgXgXgXgXgXgXgXgXgXgXgXgXgXgXgXgXgXgXgXgXgX",
"gXgXgXgXgXfXo.y y y ] dXgXgXgXgXgXgXgXgXgXgXgXgXgXgXgXgXgXgXgXgXgXgXgXgXgXgXgXgX",
"gXgXgXgXpX+.:.<.1._ ( X.+.5.fXgXgXgXgXgXgXgXgXgXgXgXgXgXgXgXgXgXgXgXgXgXgXgXgXgX",
"gXgXgXsXwX& ,XxXcX:Xd.X X [ yXgXgXgXgXgXgXgXgXgXgXgXgXgXgXgXgXgXgXgXgXgXgXgXgXgX",
"gXgXgX*.: hX7X%X*XXX'.(./.T , iXgXgXgXgXgXgXgXgXgXgXgXgXgXgXgXgXgXgXgXgXgXgXgXgX",
"gXgX@.%.p.8X-XB.P m..X.X Xg.L  . . . . . . . . . . . . . . . . . . ...rXgXgXgXgX",
"gXgX- ,.zXOX!.j.; h.N.V.).}.C.6 2 1 1 1 1 1 1 1 1 1 1 1 1 5 7 7 7 7 0 7.eXgXgXgX",
"gXgX- ,.zX$XD r tXs + @ y.T.&XlX1X`.`.`.`.`.`.`.`.`.`.`.`.9XkXlXlXlXjXq X.gXgXgX",
"gXgX- ,.zX$XS e sX3.n + t.R.oX5X=X.X#X#X#X#X#X#X#X#X#X#X.X;X3X3X4X6X2X<X>.j gXgX",
"gXgX- ,.zX$XS e sX9.=.9 u.R..X@X{.@X#X#X#X#X#X#X#X#X#X#X#X.X^.x.(..XXX0Xi.O gXgX",
"gXgX- ,.zX$XS w pXa c F.D.Y.{.+X+X+X+X+X+X+X+X+X+X+X.X.X{.{.k.  z.{..X.XI # gXgX",
"gXgX- ) >X.Xn.s.d w.l.Z.Z.Y.I.x z z z z z z z z l z a. X{.U R 4.M Y #XU.F # gXgX",
"gXgXh / f.].[.M.m b._.W.W.c.e.f f f f f f f f f f * K  X{.B p sXu N Q.K.C $ gXgX",
"gXgXgX&.= ~.|. X.X XE.S.v.A > iXgXgXgXgXgXgXgXgXpX< J |. XB p sXu v J.G.Z % gXgX",
"gXgXgXwX6.8 q.L.P.L.r.3 4 } 0.dXgXgXgXgXgXgXgXgXpX< V A.L.b i sXu v H.t | 8.gXgX",
"gXgXgXgXuX' W G G G ^ ` ` 2.dXgXgXgXgXgXgXgXgXgXsX{ E G G ~ $.dX#.! H Q 3.gXgXgX",
"gXgXgXgXgXgXk . o o g gXgXgXgXgXgXgXgXgXgXgXgXgXgXdXO.O o ;.dXgXgX-.O qXgXgXgXgX",
"gXgXgXgXgXgXsXaXaXaXsXgXgXgXgXgXgXgXgXgXgXgXgXgXgXgXsXaXaXdXgXgXgXdXaXdXgXgXgXgX",
"gXgXgXgXgXgXgXgXgXgXgXgXgXgXgXgXgXgXgXgXgXgXgXgXgXgXgXgXgXgXgXgXgXgXgXgXgXgXgXgX",
"gXgXgXgXgXgXgXgXgXgXgXgXgXgXgXgXgXgXgXgXgXgXgXgXgXgXgXgXgXgXgXgXgXgXgXgXgXgXgXgX",
"gXgXgXgXgXgXgXgXgXgXgXgXgXgXgXgXgXgXgXgXgXgXgXgXgXgXgXgXgXgXgXgXgXgXgXgXgXgXgXgX",
"gXgXgXgXgXgXgXgXgXgXgXgXgXgXgXgXgXgXgXgXgXgXgXgXgXgXgXgXgXgXgXgXgXgXgXgXgXgXgXgX",
"gXgXgXgXgXgXgXgXgXgXgXgXgXgXgXgXgXgXgXgXgXgXgXgXgXgXgXgXgXgXgXgXgXgXgXgXgXgXgXgX",
"gXgXgXgXgXgXgXgXgXgXgXgXgXgXgXgXgXgXgXgXgXgXgXgXgXgXgXgXgXgXgXgXgXgXgXgXgXgXgXgX",
"gXgXgXgXgXgXgXgXgXgXgXgXgXgXgXgXgXgXgXgXgXgXgXgXgXgXgXgXgXgXgXgXgXgXgXgXgXgXgXgX",
"gXgXgXgXgXgXgXgXgXgXgXgXgXgXgXgXgXgXgXgXgXgXgXgXgXgXgXgXgXgXgXgXgXgXgXgXgXgXgXgX",
"gXgXgXgXgXgXgXgXgXgXgXgXgXgXgXgXgXgXgXgXgXgXgXgXgXgXgXgXgXgXgXgXgXgXgXgXgXgXgXgX",
"gXgXgXgXgXgXgXgXgXgXgXgXgXgXgXgXgXgXgXgXgXgXgXgXgXgXgXgXgXgXgXgXgXgXgXgXgXgXgXgX",
"gXgXgXgXgXgXgXgXgXgXgXgXgXgXgXgXgXgXgXgXgXgXgXgXgXgXgXgXgXgXgXgXgXgXgXgXgXgXgXgX"
};
