/* XPM */
static char *result[] = {
/* columns rows colors chars-per-pixel */
"40 40 173 2 ",
"   c #030201",
".  c #0A0503",
"X  c #0D0C0B",
"o  c #110603",
"O  c #1C0B05",
"+  c #120C0A",
"@  c #19120E",
"#  c #141414",
"$  c #1B1513",
"%  c #1D1916",
"&  c #1C1B1B",
"*  c #240F07",
"=  c #2C150C",
"-  c #34150A",
";  c #39160C",
":  c #3D180C",
">  c #221E1A",
",  c #3D1E11",
"<  c #26211C",
"1  c #29221D",
"2  c #3A2016",
"3  c #0B1D28",
"4  c #1A1F23",
"5  c #211F21",
"6  c #1A2830",
"7  c #242325",
"8  c #2A2523",
"9  c #2D2924",
"0  c #272628",
"q  c #2B2B2C",
"w  c #322B27",
"e  c #342E2B",
"r  c #33302D",
"t  c #3A332C",
"y  c #312F31",
"u  c #2C3234",
"i  c #343335",
"p  c #3C3631",
"a  c #3F3932",
"s  c #363639",
"d  c #39373B",
"f  c #431A0B",
"g  c #471D11",
"h  c #532113",
"j  c #5A2415",
"k  c #642710",
"l  c #6A2A13",
"z  c #732D17",
"x  c #7B311B",
"c  c #43382E",
"v  c #433B34",
"b  c #493F35",
"n  c #473F38",
"m  c #4C433B",
"M  c #4A453F",
"N  c #54473B",
"B  c #59473A",
"V  c #52483E",
"C  c #5A493D",
"Z  c #16374B",
"A  c #3E3D41",
"S  c #285B7B",
"D  c #444444",
"F  c #464549",
"G  c #4B4A4C",
"H  c #544B42",
"J  c #5D5144",
"K  c #52504C",
"L  c #5F534B",
"P  c #4E4D52",
"I  c #504F54",
"U  c #525155",
"Y  c #55545A",
"T  c #5A5758",
"R  c #5A595D",
"E  c #63564B",
"W  c #695C4D",
"Q  c #655B54",
"!  c #685D54",
"~  c #6E6151",
"^  c #6E665E",
"/  c #736554",
"(  c #73665B",
")  c #76685D",
"_  c #7A6B5E",
"`  c #495B65",
"'  c #615F67",
"]  c #646464",
"[  c #686867",
"{  c #66656C",
"}  c #68676D",
"|  c #6B6B6D",
" . c #796E63",
".. c #7F7063",
"X. c #6C6B73",
"o. c #716F77",
"O. c #716F78",
"+. c #747474",
"@. c #74737B",
"#. c #78767F",
"$. c #7C7C7A",
"%. c #8B3617",
"&. c #8A361A",
"*. c #943919",
"=. c #9F3E1F",
"-. c #943B20",
";. c #993C20",
":. c #A9401B",
">. c #BA471F",
",. c #AD4421",
"<. c #B84928",
"1. c #C54C21",
"2. c #CD4E23",
"3. c #C64E29",
"4. c #CE5029",
"5. c #D55123",
"6. c #DC5425",
"7. c #DA5429",
"8. c #E55624",
"9. c #F45C29",
"0. c #FC5F29",
"q. c #837363",
"w. c #897763",
"e. c #847568",
"r. c #8A7A6A",
"t. c #927F6B",
"y. c #897D70",
"u. c #96836D",
"i. c #938373",
"p. c #9A8772",
"a. c #9D8974",
"s. c #A18D75",
"d. c #A28D7A",
"f. c #A8937A",
"g. c #2D76A3",
"h. c #387FAA",
"j. c #797780",
"k. c #7E7C85",
"l. c #807E87",
"z. c #817F89",
"x. c #7F94A0",
"c. c #6D9CB8",
"v. c #838383",
"b. c #84828C",
"n. c #87969E",
"m. c #AC9A83",
"M. c #B19B85",
"N. c #BBA48B",
"B. c #ACB7BB",
"V. c #C2AA8F",
"C. c #C4AC92",
"Z. c #C9AF92",
"A. c #CCB295",
"S. c #CFB698",
"D. c #D2B697",
"F. c #D2B69A",
"G. c #D5B99B",
"H. c #D9BD9D",
"J. c #CCB6A2",
"K. c #D5BCA3",
"L. c #DDC0A1",
"P. c #E3C6A5",
"I. c #E7C9A7",
"U. c #E5C8AA",
"Y. c #EBCDAA",
"T. c #EFD0AD",
"R. c #F0D0AD",
"E. c #EDCFB1",
"W. c #F1D2B6",
"Q. c #F2D5BA",
"!. c #F5D8BE",
"~. c #C3C3C0",
"^. c #D3D3CF",
/* pixels */
"b.b.b.b.b.b.b.b.b.b.b.b.b.k.X.X.X.A X X # # % # 0 } @.b.b.b.b.b.b.b.b.b.b.b.b.b.",
"b.b.b.b.b.b.b.b.b.b.b.z.{ R # # # 0 D A [ +.+.v.+.0 s ] o.b.b.b.b.b.b.b.b.b.b.b.",
"b.b.b.b.b.b.b.b.b.b.z.T # 4 D D D D D D D D F X.+.v.| y D X.b.b.b.b.b.b.b.b.b.b.",
"b.b.b.b.b.b.b.b.b.k.R 7 D D D D D D D D D D D D G | +.v.' D X.b.b.b.b.b.b.b.b.b.",
"b.b.b.b.b.b.b.b.z.Y 0 D D D D D D D D D D D D D D D G +.v.G G b.b.b.b.b.b.b.b.b.",
"b.b.b.b.b.b.b.b.z.4 d D D D D D D D D D D D D D D D D K +.] D X.b.b.b.b.b.b.b.b.",
"b.b.b.b.b.b.b.b.I q n D D F D D D D D D D D D D D D D D I +.] D j.b.b.b.b.b.b.b.",
"b.b.b.b.b.b.b.b.0 s D D D D D D D D D D D D D D D D D D D I +.i X.b.b.b.b.b.b.b.",
"b.b.b.b.b.b.b.z.7 s D D D D D D ^ m.m.m.m.m.K D D D Q m.m.| [ i X.z.b.b.b.b.b.b.",
"b.b.b.b.b.b.b.b.0 s D D D D D D ..H.G.I.T.T.N.f.G T N.T.Q.L.i.7 X.b.b.b.b.b.b.b.",
"b.b.b.b.b.b.b.b.0 H ! Q F D D ^ C.L.I.Y.T.T.T.I.V.Z.T.T.Q.!.J.m X.z.b.b.b.b.b.b.",
"b.b.b.b.b.b.b.b.0 L ) ( ! ! ! i.L.L.T.T.T.T.T.T.T.T.T.T.T.Q.Q.C X.b.b.b.b.b.b.b.",
"b.b.b.b.b.b.b.b.0 L ) ) ) )  .p.G.L.T.T.T.T.T.T.T.T.T.T.T.Q.W.J X.b.b.b.b.b.b.b.",
"b.b.b.b.b.b.b.b.0 H ! ( ) ) r.A.N.S.S.I.T.T.T.T.T.T.T.T.L.G.D.V X.b.b.b.b.b.b.b.",
"b.b.b.b.b.b.b.j.4 w & E ) _ d.f.< < < u.Z.P.T.T.T.I.A.A.w.< < & O.b.b.b.b.b.b.b.",
"b.b.b.b.b.b.b.F 8 M.b % ( e.P.p.# q # @ < s.V.Y.I.s.< r M &   G b.b.b.b.b.b.b.b.",
"b.b.b.b.b.b.k.A d.V.s.b ) r.T.s.M ~.$.6 3 D w G.S.w u ` B.T   U b.b.b.b.b.b.b.b.",
"b.b.b.b.b.b.b.A f.~ 1 V.t.r.R.f.8 [ ^.c.g.n.8 S.Z.p x.h.S 9 % Y b.b.b.b.b.b.b.b.",
"b.b.b.b.b.b.b.A q.S.1 s.K.d.I.Y.p.< | x.S 4 m H.S.m 6 S Z ~ W U b.b.b.b.b.b.b.b.",
"b.b.b.b.b.b.b.Y $ N.E E Y.I.F.I.Y.u.m a M N A.T.T.Z.V V V s.~ U b.b.b.b.b.b.b.b.",
"b.b.b.b.b.b.b.b.0 e.U.E.T.I.A.G.P.Y.Y.Y.Y.I.Z.N.V.Z.U.Y.E.!.^ Y b.b.b.b.b.b.b.b.",
"b.b.b.b.b.b.b.b.G # ..i.i.p.H.A.G.I.Y.Z.N.N...( ) q.N.A.T.N.v Y b.b.b.b.b.b.b.b.",
"b.b.b.b.b.b.b.b.k.P A D s % p.G.A.L.S.w.M a a a a m ( r.a.v 7 X.b.b.b.b.b.b.b.b.",
"b.b.b.b.b.b.b.b.b.b.k.b.k.d > ! u.N.u.^ % w a a p n ( E > > ] x.b.b.b.b.b.b.b.b.",
"b.b.b.b.b.b.b.b.b.b.b.b.b.j.i   8 N e E m Q / ( ! e e < 7 { b.b.b.b.b.b.b.b.b.b.",
"b.b.b.b.b.b.b.b.b.b.b.b.b.@.0 . . ; ; > w 9 t w 8 . . & ' b.b.b.b.b.b.b.b.b.b.b.",
"b.b.b.b.b.b.b.b.b.b.b.b.b.{ O &.k j ,.:.; . ( @ . * z * G l.b.b.b.b.b.b.b.b.b.b.",
"b.b.b.b.b.b.b.b.b.b.b.b.j.5 , 4.*.j 7.0.2.- c - &.O k z s x.b.b.b.b.b.b.b.b.b.b.",
"b.b.b.b.b.b.b.b.b.b.b.b.@.O ;.6.%.j 8.0.0.2.*.1.2.o f *.d z.z.z.b.b.b.b.b.b.b.b.",
"b.b.b.b.b.b.b.b.b.b.b.b.@.. 2 f O h 4.0.0.0.3.9.5.o + = s z.b.b.b.b.b.b.b.b.b.b.",
"b.b.b.b.b.b.b.b.b.b.b.b.@.1 F.t.X . z 5.8.8.6.8.1.o p q.A z.b.b.b.b.b.b.b.b.b.b.",
"b.b.b.b.b.b.b.b.b.b.b.b.@.9 !.H.! . = f f f f f -   v r.v b.b.b.b.b.b.b.b.b.b.b.",
"b.b.b.b.b.b.b.b.b.b.b.b.j.7 J.y.@ l 4.8.8.6.5.6.1.- X 7 F z.b.b.b.b.b.b.b.b.b.b.",
"b.b.b.b.b.b.b.b.b.b.b.b.j.7 y 5 g 4.0.0.5.=.-.<.9.>.9 @.k.b.b.b.b.b.b.b.b.b.b.b.",
"b.b.b.b.b.b.b.b.b.b.b.b.z.k.#.F : =.>.>.: . o x >.*.8 @.b.b.b.b.b.b.b.b.b.b.b.b.",
"b.b.b.b.b.b.b.b.b.b.b.b.l.O.o.F > B B H @ & X b B v 5 X.O.j.b.b.b.b.b.b.b.b.b.b.",
"b.b.b.b.b.b.b.b.b.b.b.z.o.} } D c u.u.i.8 P % q.i. .7 { } X.j.b.b.b.b.b.b.b.b.b.",
"b.b.b.b.b.b.b.b.b.b.b.z.} } } Y y y y i q R s y y y A } } o.z.b.b.b.b.b.b.b.b.b.",
"b.b.b.b.b.b.b.b.b.b.b.z.k.#.} } } { { { } } { { { } } } o.z.b.b.b.b.b.b.b.b.b.b.",
"b.b.b.b.b.b.b.b.b.b.b.b.b.z.l.l.l.+.} } } } } X.k.k.k.l.z.z.b.b.b.b.b.b.b.b.b.b."
};
