/* XPM */
static char *result[] = {
/* columns rows colors chars-per-pixel */
"32 50 45 1 ",
"  c black",
". c #020202",
"X c #040404",
"o c #0F0D0C",
"O c #30130B",
"+ c #29241E",
"@ c #2C2720",
"# c #342D28",
"$ c #3B342B",
"% c gray23",
"& c #441A0B",
"* c #6F2A11",
"= c #444444",
"- c gray30",
"; c #685B4B",
": c #76685D",
"> c DimGray",
", c #A04024",
"< c #B24729",
"1 c #B8492A",
"2 c #BD4A29",
"3 c #E65624",
"4 c #EE5A26",
"5 c #FB5E2A",
"6 c #FF6029",
"7 c #8C7B6C",
"8 c #3382B2",
"9 c #848484",
"0 c #868686",
"q c gray53",
"w c #B39C81",
"e c #BEA68C",
"r c #BFBFBA",
"t c #CEB397",
"y c #D4B899",
"u c #D7BC9C",
"i c #DDC0A1",
"p c #E0C3A2",
"a c #E2C4A4",
"s c #F2CFAF",
"d c #EFD0AD",
"f c #CFCFC9",
"g c #F7DBC4",
"h c #FFFFF8",
"j c None",
/* pixels */
"jjjjjjjjjjjjj         jjjjjjjjjj",
"jjjjjjjj     ====qqqqq%  jjjjjjj",
"jjjjjj  ============qqqqq  jjjjj",
"jjjjjj..============990qqXXjjjjj",
"jjjjj ================>qqqq jjjj",
"jjjj ====================qqq  jj",
"jj  ======================qq  jj",
"jj  =======================qqq j",
"j ==========================qqq ",
"j ==========================--q ",
"j ============================q ",
"j ==========ddddddd======ddd==q ",
"j ==========tttdddddd===ddggss= ",
"j ::::=====dtddddddddddddddgggd ",
"j :::::::::dtdddddddddddddddggs ",
"j :::::::::ttdddddddddddddddggs ",
"j :::::::::ttdddddddddddddddggs ",
"j :::::::edtdddddddddddddddddds ",
"j    ::::ed    dddddddddddd     ",
"  gg  ::ddd       dddddd       j",
" gddd ::ddd hh      dd;   hh   j",
" d   d::ddd  hh888h dd; h88    j",
" d@+ d7:ddd@ rh888r dd; f88 $$ j",
" ddp dd:dddd  h888  dd;  88 dd j",
"  dp  ddtaddd      ddddd    dd j",
"j ggddddtttdddddddddddddddddgg j",
"j  ogggdttttddddddd:::::dddggg j",
"jj      ditttdd:::::::::::dd   j",
"jjjjjjj  udttd:::       :::   jj",
"jjjjjjj  udttd:::       :::   jj",
"jjjjjjjj    d:::: ::::::::  jjjj",
"jjjjjjjjjjj    :::::::#    jjjjj",
"jjjjjjjjj    <            jjjjjj",
"jjjjjjjj     <666  d      jjjjjj",
"jjjjjjj  366 <6666   6* <  jjjjj",
"jjjjjjj &465 <6666&O&6* 1O jjjjj",
"jjjjj   666< <66666<66* 6<    jj",
"jjjjj d  ,<< <66666<66*  6<    j",
"jjjjj  d      <6666666*  6  dd j",
"jjjjjj   jj                d   j",
"jjjjjjjj    6 66666666* jj    jj",
"jjjjjjjj yd 266666<<66*  jjjjjjj",
"jjjjjjjj ud <66666<<66*  jjjjjjj",
"jjjjjjjj ud <<<    <6     jjjjjj",
"jjjjjjjj         j <  wd  jjjjjj",
"jjjjjjjjjjjjjjjjjj   d;  jjjjjjj",
"jjjjjjjjjjjjjjjjjjjj    jjjjjjjj",
"jjjjjjjjjjjjjjjjjjjjjjjjjjjjjjjj",
"jjjjjjjjjjjjjjjjjjjjjjjjjjjjjjjj",
"jjjjjjjjjjjjjjjjjjjjjjjjjjjjjjjj"
};
