/* XPM */
static char *result[] = {
/* columns rows colors chars-per-pixel */
"32 50 109 2 ",
"   c #44424F",
".  c #454250",
"X  c #454350",
"o  c #464351",
"O  c #464451",
"+  c #474552",
"@  c #484652",
"#  c #484653",
"$  c #484753",
"%  c #494754",
"&  c #494854",
"*  c #4A4855",
"=  c #4A4955",
"-  c #4B4955",
";  c #4B4A56",
":  c #4C4A56",
">  c #4C4A57",
",  c #4D4B57",
"<  c #4D4B58",
"1  c #4E4C58",
"2  c #4E4C59",
"3  c #4E4D59",
"4  c #4F4D59",
"5  c #4F4D5A",
"6  c #504E5A",
"7  c #514F5C",
"8  c #52505D",
"9  c #53515D",
"0  c #53525D",
"q  c #54535E",
"w  c #55525F",
"e  c #55535F",
"r  c #55545F",
"t  c #56555F",
"y  c #555360",
"u  c #565560",
"i  c #575660",
"p  c #575661",
"a  c #575761",
"s  c #585762",
"d  c #585862",
"f  c #595863",
"g  c #595963",
"h  c #5D5C66",
"j  c #5D5D66",
"k  c #5D5D67",
"l  c #5E5E68",
"z  c #5F5F69",
"x  c #60606A",
"c  c #61606A",
"v  c #61616A",
"b  c #61616B",
"n  c #62606B",
"m  c #62616B",
"M  c #62626B",
"N  c #63626C",
"B  c #63636C",
"V  c #63626D",
"C  c #63636D",
"Z  c #64626D",
"A  c #64636D",
"S  c #64626E",
"D  c #65636E",
"F  c #65636F",
"G  c #64646D",
"H  c #64656D",
"J  c #65656E",
"K  c #66656F",
"L  c #67666F",
"P  c #676570",
"I  c #676670",
"U  c #686571",
"Y  c #696772",
"T  c #686871",
"R  c #696872",
"E  c #6D6B76",
"W  c #6C6C75",
"Q  c #6D6C76",
"!  c #6F6E78",
"~  c #706E78",
"^  c #706F78",
"/  c #716F79",
"(  c #717079",
")  c #72717B",
"_  c #73727C",
"`  c #74727C",
"'  c #74737C",
"]  c #74737D",
"[  c #75737D",
"{  c #75737E",
"}  c #75747D",
"|  c #75747E",
" . c #76757E",
".. c #787680",
"X. c #7B7983",
"o. c #7B7984",
"O. c #7C7A85",
"+. c #7D7B85",
"@. c #7D7B86",
"#. c #7E7C86",
"$. c #7E7C87",
"%. c #7F7D87",
"&. c #817F89",
"*. c #82808A",
"=. c #84828C",
"-. c #85838D",
";. c #86838D",
":. c #86848D",
">. c #86848E",
/* pixels */
"O X 4 @.=.=.=.=.=.=.=.=.=.=.=.=.-.Z X O E -.=.=.=.=.=.=.$.6 X O ",
"O X 1 $.-.=.=.=.=.=.=.=.=.=.=.=.-.Z X O E :.=.=.=.=.=.-.%.4 X O ",
"O 8 n Y / } [ [ [ [ [ [ [ [ [ [ } A q e R } [ [ [ [ [ } _ P y O ",
"X D +.> a G G G G G G G G G G G G G G G G G G G G G G B I &.U X ",
"- D ..5 g G G G G G G G G G G G G G G G G G G G G G G G L +.F X ",
"o.F 7 l B G G G G G G G G G G G G G G G G G G G G G G G G T s O ",
">.F % v G G G G G G G G G G G G G G G G G G G G G G G G G G u O ",
"-.F & v G G G G G G G G G G G G G G G G G G G G G G G G G G u O ",
"-.F % v G G G G G G G G G G G G G G G G G G G G G G G G G G u O ",
"-.P ; v G G G G G G G G G G G G G G G G G G G G G G G G G G u O ",
"-.) z C G G G G G G G G G G G G G G G G G G G G G G G G G G u O ",
"-.} G G G G G G G G G G G G G G G G G G G G G G G G G G G G u O ",
" .Q G G G G G G G G G G G G G G G G G G G G G G G G G G G G u O ",
"G G G G G G G G G G G G G G G G G G G G G G G G G G G G G G u O ",
"G G G G G G G G G G G G G G G G G G G G G G G G G G G G G G u O ",
"G G G G G G G G G G G G G G G G G G G G G G G G G G G G G G u O ",
"G G G G G G G G G G G G G G G G G G G G G G G G G G G G G G u O ",
"] W G G G G G G G G G G G G G G G G G G G G G G G G G G G G u O ",
"-.} G G G G G G G G G G G G G G G G G G G G G G G G G G G J u O ",
"$.^ v G G G G G G G G G G G G G G G G G G G G G G G G G G M q O ",
"4 > 3 M G G G G G G G G G G G G G G G G G G G G G G G G M 3 # O ",
"X X = m J G G G G G G G G G G G G G G G G G G G G G G J m = O O ",
"O O $ q u t t t t t t t t t t t t t t t t t t t t t t u q $ O O ",
"O O O O O O X X X X X X X X X O X X X X X X X X X X X X X X O O ",
"1 2 , + O # < 2 1 1 1 1 1 2 * O & > 2 1 1 1 1 1 1 1 1 1 1 1 1 1 ",
"+.@.{ > X 9 X.@.+.+.+.+.+.#.S % k ~ @.+.+.+.+.+.+.+.+.+.+.+.+.+.",
"-.;.O.>   w *.-.-.-.-.-.-.>.Y & v  .-.-.-.-.-.-.-.-.-.-.-.-.-.-.",
"} | ( f r h ) ` _ _ _ _ _ ' K t u I | } } } } } } } } } } } } } ",
"G G G G G G G G G G G G G G G v % u G G G G G G G G G G G G G G ",
"G G G G G G G G G G G G G G G x & i H G G G G G G G G G G G G G ",
"G G G G G G G G G G G G G G G x & i H G G G G G G G G G G G G G ",
"G G G G G G G G G G G G G G G x & i H G G G G G G G G G G G G G ",
"G G G G G G G G G G G G G G G x & i H G G G G G G G G G G G G G ",
"G G G G G G G G G G G G G G G x & i H G G G G G G G G G G G G G ",
"G G G G G G G G G G G G G G G x & i H G G G G G G G G G G G G G ",
"G G G G G G G G G G G G G G G x & i H G G G G G G G G G G G G G ",
"G G G G G G G G G G G G G G G x & i H G G G G G G G G G G G G G ",
"G G G G G G G G G G G G G G G x & i H G G G G G G G G G G G G G ",
"G G G G G G G G G G G G G G G x & i H G G G G G G G G G G G G G ",
"G G G G G G G G G G G G G G G x & i H G G G G G G G G G G G G G ",
"G G G G G G G G G G G G G G G x & i H G G G G G G G G G G G G G ",
"G G G G G G G G G G G G G G G x & i H G G G G G G G G G G G G G ",
"G G G G G G G G G G G G G G G x & i H G G G G G G G G G G G G G ",
"G G G G G G G G G G G G G G G c & p J G G G G G G G G G G G G G ",
"G G G G G G G G G G G G G G N j % q b G G G G G G G G G G G G G ",
"G G G G G G G G G G G G G G d % O @ 4 M G G G G G G G G G G G G ",
"G G G G G G G G G G G G G J p o O o : N J G G G G G G G G G G G ",
"0 V ! f u u u u u u u u u u 4 O O O % r u u u u u u u u u u u u ",
". D +.> X O O O O O O O O O O O O O O O O O O O O O O O O O O O ",
"X D O., O O O O O O O O O O O O O O O O O O O O O O O O O O O O "
};
