/* XPM */
static char *result[] = {
/* columns rows colors chars-per-pixel */
"40 40 109 2 ",
"   c #44424F",
".  c #454350",
"X  c #464351",
"o  c #464451",
"O  c #474552",
"+  c #484652",
"@  c #484653",
"#  c #484753",
"$  c #494754",
"%  c #494854",
"&  c #4A4854",
"*  c #4A4855",
"=  c #4A4955",
"-  c #4B4955",
";  c #4B4956",
":  c #4C4A56",
">  c #4C4A57",
",  c #4C4B57",
"<  c #4D4B57",
"1  c #4D4B58",
"2  c #4D4C58",
"3  c #4E4C58",
"4  c #4E4C59",
"5  c #4F4D59",
"6  c #4F4E59",
"7  c #4F4D5A",
"8  c #4F4E5A",
"9  c #504E5B",
"0  c #504F5B",
"q  c #514F5C",
"w  c #51505B",
"e  c #51505C",
"r  c #52505C",
"t  c #53515D",
"y  c #53525D",
"u  c #53515E",
"i  c #54535F",
"p  c #55545F",
"a  c #555360",
"s  c #575661",
"d  c #575662",
"f  c #595764",
"g  c #5B5965",
"h  c #5D5C66",
"j  c #5D5D66",
"k  c #5E5D67",
"l  c #5F5D69",
"z  c #5E5E68",
"x  c #5F5F69",
"c  c #605F69",
"v  c #606069",
"b  c #60606A",
"n  c #61606A",
"m  c #61616A",
"M  c #61616B",
"N  c #62616B",
"B  c #62626B",
"V  c #63626C",
"C  c #63636C",
"Z  c #64646D",
"A  c #65646E",
"S  c #65656E",
"D  c #66656E",
"F  c #66666F",
"G  c #676670",
"H  c #676770",
"J  c #686671",
"K  c #686771",
"L  c #686672",
"P  c #686871",
"I  c #696871",
"U  c #6B6975",
"Y  c #6C6A75",
"T  c #6D6B76",
"R  c #6E6C77",
"E  c #6F6D78",
"W  c #706E79",
"Q  c #716F7A",
"!  c #73717C",
"~  c #75737D",
"^  c #75747E",
"/  c #77767F",
"(  c #777580",
")  c #787680",
"_  c #787681",
"`  c #787781",
"'  c #797781",
"]  c #797782",
"[  c #7A7883",
"{  c #7B7984",
"}  c #7B7A84",
"|  c #7C7A84",
" . c #7C7A85",
".. c #7D7B85",
"X. c #7D7B86",
"o. c #7D7C86",
"O. c #7E7C86",
"+. c #7E7C87",
"@. c #7F7D87",
"#. c #7F7E88",
"$. c #807E88",
"%. c #807F88",
"&. c #807F89",
"*. c #817F89",
"=. c #818089",
"-. c #82808A",
";. c #83818B",
":. c #84828C",
">. c #85838D",
/* pixels */
"o o . f ;.:.:.:.:.:.:.:.:.:.:.:.:.:.:.:.>.( $ o . L >.:.:.:.:.:.:.:.:.:.g   o o ",
"o O * g +.$.&.&.&.&.&.&.&.&.&.&.&.&.&.&.*.~ > $ $ J =.&.&.&.&.&.&.&.&.$.l : + o ",
". 7 ) T 9 h P P P P P P P P P P P P P P P F n v v A P P P P P P P P P P ^ [ r . ",
"; a  .R % s Z Z Z Z Z Z Z Z Z Z Z Z Z Z Z Z Z Z Z Z Z Z Z Z Z Z Z Z Z Z / @.u . ",
"{ ! r i v B Z Z Z Z Z Z Z Z Z Z Z Z Z Z Z Z Z Z Z Z Z Z Z Z Z Z Z Z Z Z H G 3 . ",
">.' $ 6 Z Z Z Z Z Z Z Z Z Z Z Z Z Z Z Z Z Z Z Z Z Z Z Z Z Z Z Z Z Z Z Z Z B < o ",
">._ $ 8 Z Z Z Z Z Z Z Z Z Z Z Z Z Z Z Z Z Z Z Z Z Z Z Z Z Z Z Z Z Z Z Z Z C < o ",
">.] > w Z Z Z Z Z Z Z Z Z Z Z Z Z Z Z Z Z Z Z Z Z Z Z Z Z Z Z Z Z Z Z Z Z C < o ",
">.o.N n Z Z Z Z Z Z Z Z Z Z Z Z Z Z Z Z Z Z Z Z Z Z Z Z Z Z Z Z Z Z Z Z Z C < o ",
"*.} F Z Z Z Z Z Z Z Z Z Z Z Z Z Z Z Z Z Z Z Z Z Z Z Z Z Z Z Z Z Z Z Z Z Z C < o ",
"I K Z Z Z Z Z Z Z Z Z Z Z Z Z Z Z Z Z Z Z Z Z Z Z Z Z Z Z Z Z Z Z Z Z Z Z C < o ",
"Z Z Z Z Z Z Z Z Z Z Z Z Z Z Z Z Z Z Z Z Z Z Z Z Z Z Z Z Z Z Z Z Z Z Z Z Z C < o ",
"Z Z Z Z Z Z Z Z Z Z Z Z Z Z Z Z Z Z Z Z Z Z Z Z Z Z Z Z Z Z Z Z Z Z Z Z Z C < o ",
"P H Z Z Z Z Z Z Z Z Z Z Z Z Z Z Z Z Z Z Z Z Z Z Z Z Z Z Z Z Z Z Z Z Z Z Z C < o ",
"*.} F Z Z Z Z Z Z Z Z Z Z Z Z Z Z Z Z Z Z Z Z Z Z Z Z Z Z Z Z Z Z Z Z Z Z C < X ",
"+.` V B Z Z Z Z Z Z Z Z Z Z Z Z Z Z Z Z Z Z Z Z Z Z Z Z Z Z Z Z Z Z Z Z B c > o ",
"5 3 * y Z Z Z Z Z Z Z Z Z Z Z Z Z Z Z Z Z Z Z Z Z Z Z Z Z Z Z Z Z Z Z Z y % O o ",
". o . 6 b n n n n n n n n n n n n n n n n n n n n n n n n n n n n n n b 6 . o o ",
"o o . O * * * & % % % % % % % % % & * * & & & % % % % % % % % % % % % % O . o o ",
"3 3 4 ; o o o ; 3 1 1 1 1 1 1 1 1 1 @ o $ = 1 1 1 1 1 1 1 1 1 1 1 1 1 1 3 3 3 3 ",
"X.X.O.U O o O Y O.X.X.X.X.X.X.X.X.{ u $ k G | X.X.X.X.X.X.X.X.X.X.X.X.X.X.X.X.X.",
"*.*.-.W - * ; W *.$.$.$.$.$.$.$.%.@.d < z P #.*.*.*.*.*.*.*.*.*.*.*.*.*.*.*.*.*.",
"P P P F n n n D K K K K K K K K K H V k , e H P P P P P P P P P P P P P P P P P ",
"Z Z Z Z Z Z Z Z Z Z Z Z Z Z Z Z Z Z Z n $ 2 C Z Z Z Z Z Z Z Z Z Z Z Z Z Z Z Z Z ",
"Z Z Z Z Z Z Z Z Z Z Z Z Z Z Z Z Z Z Z b $ 2 C Z Z Z Z Z Z Z Z Z Z Z Z Z Z Z Z Z ",
"Z Z Z Z Z Z Z Z Z Z Z Z Z Z Z Z Z Z Z b $ 2 C Z Z Z Z Z Z Z Z Z Z Z Z Z Z Z Z Z ",
"Z Z Z Z Z Z Z Z Z Z Z Z Z Z Z Z Z Z Z b $ 2 C Z Z Z Z Z Z Z Z Z Z Z Z Z Z Z Z Z ",
"Z Z Z Z Z Z Z Z Z Z Z Z Z Z Z Z Z Z Z b $ 2 C Z Z Z Z Z Z Z Z Z Z Z Z Z Z Z Z Z ",
"Z Z Z Z Z Z Z Z Z Z Z Z Z Z Z Z Z Z Z b $ 2 C Z Z Z Z Z Z Z Z Z Z Z Z Z Z Z Z Z ",
"Z Z Z Z Z Z Z Z Z Z Z Z Z Z Z Z Z Z Z b $ 2 C Z Z Z Z Z Z Z Z Z Z Z Z Z Z Z Z Z ",
"Z Z Z Z Z Z Z Z Z Z Z Z Z Z Z Z Z Z Z b $ 2 C Z Z Z Z Z Z Z Z Z Z Z Z Z Z Z Z Z ",
"Z Z Z Z Z Z Z Z Z Z Z Z Z Z Z Z Z Z Z b $ 2 C Z Z Z Z Z Z Z Z Z Z Z Z Z Z Z Z Z ",
"Z Z Z Z Z Z Z Z Z Z Z Z Z Z Z Z Z Z Z b $ 2 C Z Z Z Z Z Z Z Z Z Z Z Z Z Z Z Z Z ",
"Z Z Z Z Z Z Z Z Z Z Z Z Z Z Z Z Z Z Z b $ 2 C Z Z Z Z Z Z Z Z Z Z Z Z Z Z Z Z Z ",
"Z Z Z Z Z Z Z Z Z Z Z Z Z Z Z Z Z Z Z n $ 2 C Z Z Z Z Z Z Z Z Z Z Z Z Z Z Z Z Z ",
"Z Z Z Z Z Z Z Z Z Z Z Z Z Z Z Z Z Z M j $ , x B Z Z Z Z Z Z Z Z Z Z Z Z Z Z Z Z ",
"Z Z Z Z Z Z Z Z Z Z Z Z Z Z Z Z Z C 0 $ o O $ p Z Z Z Z Z Z Z Z Z Z Z Z Z Z Z Z ",
"c m H S m m m m m m m m m m m m m v < . o o . w m m m m m m m m m m m m m m m m ",
"# t ..E - * * * * * * * * * * * * * O o o o o + * * * * * * * * * * * * * * * * ",
". q *.Q O o o o o o o o o o o o o o o o o o o o o o o o o o o o o o o o o o o o "
};
